<?xml version="1.0" encoding="utf-8"?>
<!-- Generator: Adobe Illustrator 16.0.0, SVG Export Plug-In . SVG Version: 6.00 Build 0)  -->
<!DOCTYPE svg PUBLIC "-//W3C//DTD SVG 1.1//EN" "http://www.w3.org/Graphics/SVG/1.1/DTD/svg11.dtd">
<svg version="1.1" id="Layer_1" xmlns="http://www.w3.org/2000/svg" xmlns:xlink="http://www.w3.org/1999/xlink" x="0px" y="0px"
	 width="208.5px" height="35px" viewBox="0 0 208.5 35" enable-background="new 0 0 208.5 35" xml:space="preserve">
<g>
	<path fill="#FFFFFF" d="M13.08,7.46h7.311L15.05,32.583H7.74L13.08,7.46z"/>
	<path fill="#FFFFFF" d="M17.395,32.583l4.912-23.107L21.686,7.46h7.889l2.212,8.146l2.046,8.124l0.977-9.539L36.24,7.46h6.838
		l-5.34,25.123H31.2l-2.993-9.924l-1.828-6.217l-0.486,8.231l-1.681,7.909H17.395z"/>
	<path fill="#FFFFFF" d="M42.702,7.46h7.91l0.024,8.66l-0.002,9.09l3.753-9.09l3.771-8.66h5.638L52.239,32.583h-7.781L42.702,7.46z"
		/>
	<path fill="#FFFFFF" d="M99.578,7.46h7.31l-5.34,25.123h-7.31L99.578,7.46z"/>
	<polyline fill="#FFFFFF" points="11.181,16.394 2.574,16.394 11.181,22.61 11.181,17.11 	"/>
	<polyline fill="#FFFFFF" points="69.681,25.628 64.064,25.628 69.681,29.685 69.681,26.095 	"/>
	<path fill="#FFFFFF" d="M24.212,32.583c0,0,1.969-9.213,2.808-13.082c0.229-1.048,0.373-1.704,0.373-1.677l-0.666-2.876
		c0,0-2.404,0.834-2.515,1.043c-0.11,0.207-2.028,9.25-2.028,9.25L24.212,32.583z"/>
	<path fill="#FFFFFF" d="M36.24,7.46l-3.508,15.974l1.447,2.302c0,0,4.931-13.02,4.668-13.02S36.24,7.46,36.24,7.46z"/>
	<path fill="#FFFFFF" d="M126.46,32.583l4.911-23.107L130.75,7.46h7.889l2.213,8.146l2.046,8.124l0.977-9.539l1.431-6.731h6.839
		l-5.341,25.123h-6.537l-2.993-9.924l-1.829-6.217l-0.485,8.231l-1.681,7.909H126.46z"/>
	<path fill="#FFFFFF" d="M133.277,32.583c0,0,1.969-9.213,2.808-13.082c0.228-1.048,0.372-1.704,0.372-1.677l-0.666-2.876
		c0,0-2.403,0.834-2.514,1.043c-0.111,0.207-2.028,9.25-2.028,9.25L133.277,32.583z"/>
	<path fill="#FFFFFF" d="M145.305,7.46l-3.508,15.974l1.447,2.302c0,0,4.932-13.02,4.668-13.02
		C147.65,12.716,145.305,7.46,145.305,7.46z"/>
	<g>
		<path fill="#FFFFFF" d="M109.961,32.712c-0.906-0.215-1.66-0.514-2.264-0.9c-0.604-0.386-1.096-0.879-1.476-1.479
			c-0.38-0.601-0.65-1.243-0.812-1.93c-0.162-0.686-0.238-1.489-0.228-2.411c0.01-0.923,0.077-1.844,0.202-2.766
			c0.124-0.922,0.31-1.962,0.556-3.119c0.364-1.715,0.771-3.208,1.22-4.479c0.449-1.272,1.036-2.469,1.76-3.592
			c0.725-1.121,1.565-2.032,2.521-2.732s2.116-1.25,3.48-1.65s2.918-0.601,4.662-0.601c1.2,0,2.255,0.111,3.166,0.333
			c0.91,0.222,1.667,0.524,2.271,0.91c0.604,0.387,1.094,0.887,1.471,1.501s0.645,1.269,0.805,1.962s0.234,1.504,0.223,2.433
			s-0.079,1.851-0.202,2.766c-0.123,0.914-0.308,1.95-0.553,3.107c-0.364,1.716-0.775,3.209-1.231,4.48
			c-0.457,1.272-1.045,2.462-1.766,3.569c-0.723,1.107-1.563,2.008-2.525,2.701s-2.124,1.236-3.486,1.629
			c-1.363,0.393-2.916,0.59-4.659,0.59C111.91,33.035,110.865,32.927,109.961,32.712z M112.735,27.826
			c0.167,0.929,0.708,1.393,1.622,1.393c0.672,0,1.215-0.168,1.629-0.504s0.822-1.029,1.225-2.079s0.826-2.626,1.273-4.727
			l1.098-5.166c0.434-2.044,0.558-3.565,0.37-4.565c-0.188-1.001-0.739-1.501-1.653-1.501c-0.915,0-1.658,0.489-2.23,1.468
			c-0.572,0.979-1.134,2.763-1.684,5.349l-1.144,5.381C112.736,25.246,112.568,26.896,112.735,27.826z"/>
		<polygon fill="#FFFFFF" points="120.491,1.437 119.681,5.486 125.64,1.437 		"/>
	</g>
	<path fill="#FFFFFF" d="M90.053,16.764c-0.174-0.129-0.435-0.296-0.783-0.504c-0.35-0.207-0.619-0.382-0.81-0.525
		c-0.191-0.143-0.395-0.313-0.609-0.515c-0.215-0.2-0.353-0.421-0.416-0.664c-0.062-0.243-0.062-0.515,0.001-0.814
		c0.244-1.144,1.279-1.715,3.109-1.715c0.758,0,1.52,0.16,2.287,0.482c0.475,0.199,0.874,0.469,1.215,0.797l0.014-0.049l2.688-3.643
		c-0.029-0.068-1.151-1.046-2.005-1.512c-0.411-0.224-0.996-0.438-1.763-0.632c-0.767-0.192-1.607-0.289-2.521-0.289
		c-5.76,0-9.181,2.551-10.266,7.652c-0.2,0.943-0.245,1.826-0.134,2.647c0.111,0.822,0.297,1.494,0.558,2.016s0.637,1.021,1.128,1.5
		c0.491,0.479,0.894,0.822,1.207,1.029c0.312,0.207,0.699,0.439,1.159,0.696c1.269,0.687,2.142,1.272,2.616,1.758
		c0.477,0.486,0.641,1.071,0.495,1.758c-0.137,0.644-0.485,1.087-1.044,1.329c-0.559,0.243-1.41,0.364-2.553,0.364
		c-0.809,0-1.547-0.145-2.215-0.435c-0.277-0.119-1.181-0.574-1.44-1.127l-2.849,3.939c0.202,0.258,0.452,0.517,0.764,0.773
		c0.348,0.286,0.809,0.586,1.385,0.9s1.318,0.568,2.229,0.761c0.909,0.192,1.914,0.29,3.015,0.29c2.644,0,4.819-0.74,6.527-2.219
		c1.708-1.479,2.862-3.634,3.464-6.464c0.371-1.743,0.195-3.222-0.525-4.437S91.95,17.65,90.053,16.764z"/>
	<polygon fill="#FFFFFF" points="75.368,7.46 65.515,7.46 66.66,9.197 55.151,32.583 61.453,32.583 63.181,28.5 64.935,24.203 
		64.929,24.203 68.807,14.834 69.32,32.583 77.188,32.583 	"/>
	<g>
		<path fill="#EF3D39" d="M161.481,32.767h-7.116l5.341-25.124h2.828c0.688,0,1.715-0.032,3.086-0.097s2.5-0.096,3.387-0.096
			c3.086,0,5.246,0.679,6.479,2.036c1.233,1.358,1.553,3.438,0.958,6.238c-0.354,1.657-1.026,3.129-2.022,4.416
			c-0.993,1.286-2.167,2.308-3.513,3.065c0.609,0.156,1.086,0.521,1.429,1.093s0.56,1.247,0.652,2.026
			c0.091,0.778,0.149,1.564,0.173,2.357c0.025,0.793,0.081,1.576,0.167,2.348s0.238,1.35,0.456,1.736h-7.91
			c-0.115-0.201-0.117-0.762-0.006-1.684c0.109-0.922,0.227-2.029,0.352-3.322s0.145-2.376,0.059-3.248c-0.029,0-0.064,0-0.107,0
			c-0.271,0-0.561-0.003-0.865-0.01c-0.308-0.008-0.572-0.018-0.799-0.033c-0.225-0.014-0.462-0.027-0.708-0.043
			c-0.248-0.014-0.429-0.021-0.542-0.021L161.481,32.767z M164.792,20.419c0.357,0,0.66-0.014,0.91-0.043
			c0.248-0.028,0.527-0.082,0.836-0.16c0.311-0.079,0.581-0.204,0.811-0.376c0.229-0.171,0.458-0.393,0.687-0.664
			c0.229-0.271,0.433-0.622,0.61-1.051c0.177-0.429,0.326-0.929,0.447-1.5l0.36-1.694c0.265-1.242,0.122-2.111-0.423-2.604
			c-0.546-0.494-1.425-0.74-2.64-0.74h-0.407l-1.877,8.832H164.792z"/>
		<path fill="#EF3D39" d="M174.306,32.767l7.333-25.124h10.054l0.096,8.425l-0.049,4.266l1.716-4.244l3.468-8.446h8.961
			l-3.497,25.124h-6.667l2.047-14.77l0.899-5.445l-7.921,20.129h-5.595l0.696-20.129l-1.285,5.445l-3.805,14.77H174.306z"/>
		<polyline fill="#EF3D39" points="158.668,16.394 150.062,16.394 158.668,22.61 158.668,17.11 		"/>
	</g>
</g>
</svg>
